<?xml version="1.0" encoding="UTF-8"?>
<!-- Created with Inkscape (http://www.inkscape.org/) -->
<svg width="24" height="24" version="1.1" viewBox="0 0 6.35 6.35" xmlns="http://www.w3.org/2000/svg">
 <path d="m0.029514 5.842c0.21791 0.06632 0.32213 0.085269 0.50214 0.085269 0.64426 0 1.0896-0.34108 2.3307-1.7622 0.74847 0 1.3075 0.00947 1.677 0.037897-0.018949 0.11369-0.037897 0.22738-0.047372 0.34108-0.018949 0.094744-0.047372 0.29371-0.075795 0.50214-0.018949 0.18001-0.047372 0.35055-0.056846 0.38845-0.028423 0.16106-0.047372 0.31265-0.047372 0.4074 0 0.12317 0.094743 0.20844 0.21791 0.20844 0.037897 0 0.2937-0.047372 0.76742-0.13264l0.54004-0.094744c0.06632-0.00947 0.17054-0.028423 0.3316-0.056846l0.15159-0.22738c-0.38845 0.028423-0.62531 0.047372-0.7011 0.047372-0.37897 0-0.48319-0.094744-0.48319-0.42635 0-0.60636 0.3695-3.2592 0.67268-4.7656l-0.13264-0.094744c-0.28423 0.29371-0.30318 0.30318-0.50214 0.30318-0.12317 0-0.17054-0.009474-0.54004-0.06632-0.42635-0.06632-0.67268-0.094744-0.86217-0.094744-0.43582 0-0.89059 0.21791-1.3359 0.65373-0.50214 0.48319-0.72005 0.90006-0.72005 1.4022 0 0.22738 0.028423 0.37897 0.13264 0.65373l0.7011-0.37897c-0.15159-0.44529-0.19896-0.6632-0.19896-0.88112 0-0.54004 0.4074-0.86217 1.099-0.86217 0.10422 0 0.22738 0.00947 0.35055 0.018949l0.22738 0.028423c0.13264 0.00947 0.22738 0.018949 0.2937 0.028423 0.15159 0.018949 0.23686 0.018949 0.49267 0.037897l-1.6391 2.1223c-0.39792 0.51162-1.0138 1.2317-1.2696 1.478-0.37897 0.3695-0.6632 0.50214-1.099 0.50214-0.16106 0-0.24633-0.00947-0.41687-0.066321zm3.1265-2.0654 1.8286-2.397-0.38845 2.397z" stroke-width=".19769" aria-label="A"/>
</svg>
