<?xml version="1.0" encoding="UTF-8" standalone="no"?>
<!-- Created with Inkscape (http://www.inkscape.org/) -->

<svg
   width="24"
   height="24"
   version="1.1"
   viewBox="0 0 6.35 6.35"
   id="svg1"
   sodipodi:docname="h.svg"
   inkscape:version="1.4.2 (ebf0e94, 2025-05-08)"
   xmlns:inkscape="http://www.inkscape.org/namespaces/inkscape"
   xmlns:sodipodi="http://sodipodi.sourceforge.net/DTD/sodipodi-0.dtd"
   xmlns="http://www.w3.org/2000/svg"
   xmlns:svg="http://www.w3.org/2000/svg">
  <defs
     id="defs1" />
  <sodipodi:namedview
     id="namedview1"
     pagecolor="#ffffff"
     bordercolor="#000000"
     borderopacity="0.25"
     inkscape:showpageshadow="2"
     inkscape:pageopacity="0.0"
     inkscape:pagecheckerboard="0"
     inkscape:deskcolor="#d1d1d1"
     inkscape:zoom="20.583333"
     inkscape:cx="11.975709"
     inkscape:cy="12"
     inkscape:window-width="1440"
     inkscape:window-height="697"
     inkscape:window-x="0"
     inkscape:window-y="32"
     inkscape:window-maximized="1"
     inkscape:current-layer="svg1" />
  <path
     d="m 2.5173994,3.3778774 c 0.041139,-0.1302735 0.061708,-0.219408 0.075422,-0.2536905 0.041139,-0.164556 0.082278,-0.3222555 0.123417,-0.479955 0.041139,-0.164556 0.082278,-0.329112 0.1302735,-0.493668 0.00686,-0.027426 0.027426,-0.123417 0.054852,-0.2536905 L 3.1687669,1.6706089 c -0.178269,-0.013713 -0.301686,-0.013713 -0.397677,-0.013713 -0.671937,0 -1.1313225,0.123417 -1.5015735,0.397677 -0.37025101,0.27426 -0.53480701,0.589659 -0.53480701,1.0216185 0,0.109704 0.013713,0.178269 0.054852,0.342825 L 1.3037989,3.2476039 c -0.061709,-0.219408 -0.075422,-0.3222555 -0.075422,-0.4730985 0,-0.3771075 0.1576995,-0.6513675 0.4319595,-0.7747845 0.1714125,-0.068565 0.3359685,-0.089135 0.754215,-0.089135 -0.1028475,0.3359685 -0.109704,0.370251 -0.342825,1.2821655 l -0.047995,0.1988385 -0.246834,0.260547 0.178269,0.013713 C 1.6260544,4.9411595 1.4752114,5.126285 0.74156589,5.126285 c -0.109704,0 -0.191982,0 -0.36339451,-0.013713 l -0.3222555,0.4456725 c 0.150843,0.02057 0.2125515,0.027426 0.3359685,0.027426 0.21940801,0 0.39082051,-0.020569 0.52795051,-0.068565 C 1.1323864,5.455397 1.4752114,5.181137 1.8317494,4.810886 2.1951439,4.4337784 2.2157134,4.3926394 2.4419779,3.6795634 3.2921839,3.6247114 3.539018,3.6109984 3.922982,3.6041419 3.8886995,3.7481284 3.8612735,3.8441194 3.854417,3.8852584 L 3.6967175,4.4680609 C 3.4567399,5.427971 3.4567399,5.427971 3.4567399,5.5171055 c 0,0.075421 0.068565,0.1439865 0.1508431,0.1439865 0.047995,0 0.1165605,-0.013713 0.191982,-0.034282 0.178269,-0.047995 0.287973,-0.068565 1.0353315,-0.205695 L 4.9583135,5.249702 C 4.6017755,5.2839845 4.485215,5.290841 4.306946,5.290841 c -0.13713,0 -0.219408,-0.068565 -0.219408,-0.1851255 0,-0.2125515 0,-0.2125515 0.438816,-1.9198201 0.438816,-1.5289995 0.438816,-1.5289995 0.521094,-1.659273 0.1028475,-0.164556 0.219408,-0.233121 0.41139,-0.233121 0.13713,0 0.2125515,0.013713 0.3633945,0.068565 l 0.233121,-0.37710753 c -0.123417,-0.041139 -0.178269,-0.0479955 -0.301686,-0.0479955 -0.089135,0 -0.1576995,0.006857 -0.2262645,0.027426 C 5.3559905,1.0192414 5.006309,1.2935014 4.7114795,1.6020439 4.4372195,1.8968734 4.3412285,2.0751424 4.224668,2.5002454 L 4.0395425,3.1653259 c -0.00686,0.02057 -0.027426,0.095991 -0.061708,0.2125515 z"
     id="text1"
     style="font-size:6.8565px;font-family:Z003;stroke-width:0.14307"
     transform="scale(1.0391 .9624)"
     aria-label="H" />
</svg>
