<?xml version="1.0" encoding="UTF-8" standalone="no"?>
<!-- Created with Inkscape (http://www.inkscape.org/) -->

<svg
   width="24"
   height="24"
   version="1.1"
   viewBox="0 0 6.35 6.35"
   id="svg1"
   sodipodi:docname="i.svg"
   inkscape:version="1.4.2 (ebf0e94, 2025-05-08)"
   xmlns:inkscape="http://www.inkscape.org/namespaces/inkscape"
   xmlns:sodipodi="http://sodipodi.sourceforge.net/DTD/sodipodi-0.dtd"
   xmlns="http://www.w3.org/2000/svg"
   xmlns:svg="http://www.w3.org/2000/svg">
  <defs
     id="defs1" />
  <sodipodi:namedview
     id="namedview1"
     pagecolor="#ffffff"
     bordercolor="#000000"
     borderopacity="0.25"
     inkscape:showpageshadow="2"
     inkscape:pageopacity="0.0"
     inkscape:pagecheckerboard="0"
     inkscape:deskcolor="#d1d1d1"
     inkscape:zoom="20.583333"
     inkscape:cx="11.975709"
     inkscape:cy="12"
     inkscape:window-width="1440"
     inkscape:window-height="697"
     inkscape:window-x="0"
     inkscape:window-y="32"
     inkscape:window-maximized="1"
     inkscape:current-layer="svg1" />
  <path
     d="m 0.784916,6.5518761 c 0.613116,-0.011354 0.613116,-0.011354 0.919674,-0.011354 0.22708,0 0.22708,0 1.294356,0.011354 h 0.45416 L 3.86185,6.2680261 2.805928,6.1885481 C 3.0103,5.2121041 3.736956,2.36225 4.270594,0.39800802 l 0.658532,-0.068124 0.39739,-0.28385 H 4.94048 l -1.351126,0.011354 c -0.295204,0 -0.488222,0 -0.874258,-0.011354 l -0.39739,0.28385 1.02186,0.068124 C 3.12384,1.317682 2.692388,3.04349 2.033856,5.5867861 2.011148,5.6662641 1.93167,5.9274061 1.863546,6.1885481 L 1.19366,6.2680261 Z"
     id="text1"
     style="font-size:11.354px;font-family:Z003;stroke-width:0.23691"
     transform="scale(1.0391 .9624)"
     aria-label="I" />
</svg>
