<?xml version="1.0" encoding="UTF-8" standalone="no"?>
<!-- Created with Inkscape (http://www.inkscape.org/) -->

<svg
   width="24"
   height="24"
   version="1.1"
   viewBox="0 0 6.35 6.35"
   id="svg1"
   sodipodi:docname="k.svg"
   inkscape:version="1.4.2 (ebf0e94, 2025-05-08)"
   xmlns:inkscape="http://www.inkscape.org/namespaces/inkscape"
   xmlns:sodipodi="http://sodipodi.sourceforge.net/DTD/sodipodi-0.dtd"
   xmlns="http://www.w3.org/2000/svg"
   xmlns:svg="http://www.w3.org/2000/svg">
  <defs
     id="defs1" />
  <sodipodi:namedview
     id="namedview1"
     pagecolor="#ffffff"
     bordercolor="#000000"
     borderopacity="0.25"
     inkscape:showpageshadow="2"
     inkscape:pageopacity="0.0"
     inkscape:pagecheckerboard="0"
     inkscape:deskcolor="#d1d1d1"
     inkscape:zoom="20.583333"
     inkscape:cx="11.975709"
     inkscape:cy="12"
     inkscape:window-width="1440"
     inkscape:window-height="697"
     inkscape:window-x="0"
     inkscape:window-y="32"
     inkscape:window-maximized="1"
     inkscape:current-layer="svg1" />
  <path
     d="m 5.9883001,5.380777 c -0.316616,0.4432624 -0.4828394,0.5699088 -0.751963,0.5699088 -0.277039,0 -0.554078,-0.2295466 -0.7836246,-0.6490628 C 4.2231659,4.8741914 4.1123503,4.589237 3.7086649,3.4731656 3.5424415,3.0219878 3.4553721,2.768695 3.2654025,2.2621094 4.4764587,1.2331074 4.8247363,1.0035608 5.1730139,1.0035608 c 0.1424772,0 0.2453774,0.023746 0.4670086,0.118731 L 5.9328923,0.53655219 c -0.197885,-0.079154 -0.3007852,-0.1029002 -0.4432624,-0.1029002 -0.197885,0 -0.3324468,0.0474924 -0.5224164,0.1820542 -0.118731,0.079154 -0.118731,0.079154 -1.1319022,0.89444021 L 3.0437713,2.17504 c -0.023746,0.023746 -0.118731,0.094985 -0.2532928,0.197885 L 3.2020793,0.71860639 c 0.2295466,-0.0633232 0.2928698,-0.1029002 0.4116008,-0.2453774 -0.356193,-0.0237462 -0.5303318,-0.0316616 -0.7282168,-0.0316616 -0.6253166,0 -1.1239868,0.0870694 -1.4722644,0.2532928 -0.59365498,0.2928698 -0.91818638,0.75987841 -0.91818638,1.32978721 0,0.2058004 0.0316616,0.3324468 0.1345618,0.593655 L 1.2786371,2.3412634 C 1.1519907,2.0325628 1.1044983,1.8425932 1.1044983,1.5893004 c 0,-0.554078 0.39577,-0.85486321 1.1319022,-0.85486321 0.079154,0 0.2137158,0.007915 0.3799392,0.0237462 L 2.5371857,1.066884 C 2.0622617,3.045734 1.9435307,3.441504 1.6981533,3.9797512 1.4369451,4.4784214 1.1361599,4.6842218 0.68498212,4.6604756 H 0.38419692 L 0.03591931,5.0008378 H 1.1203291 c 0.554078,0 0.5857396,0 0.7361322,-0.063323 0.158308,-0.071239 0.3324468,-0.1662234 0.514501,-0.277039 H 1.4131989 C 2.3788777,3.6947968 2.5055241,3.4889964 2.7588169,2.4995714 l 0.055408,0.1741388 c 0.047492,0.1345618 0.047492,0.1424772 0.1424772,0.435347 l 0.1424772,0.474924 c 0.3403622,1.108156 0.5778242,1.6543186 0.8627786,1.97885 0.3482776,0.39577 0.831117,0.6015704 1.4168566,0.6015704 0.2612082,0 0.4036854,-0.023746 0.6965552,-0.1345618 z"
     id="text1"
     style="font-size:7.9154px;font-family:Z003;stroke-width:0.16516"
     transform="scale(1.0391 .9624)"
     aria-label="K" />
</svg>
