<?xml version="1.0" encoding="UTF-8" standalone="no"?>
<!-- Created with Inkscape (http://www.inkscape.org/) -->

<svg
   width="24"
   height="24"
   version="1.1"
   viewBox="0 0 6.35 6.35"
   id="svg1"
   sodipodi:docname="m.svg"
   inkscape:version="1.4.2 (ebf0e94, 2025-05-08)"
   xmlns:inkscape="http://www.inkscape.org/namespaces/inkscape"
   xmlns:sodipodi="http://sodipodi.sourceforge.net/DTD/sodipodi-0.dtd"
   xmlns="http://www.w3.org/2000/svg"
   xmlns:svg="http://www.w3.org/2000/svg">
  <defs
     id="defs1" />
  <sodipodi:namedview
     id="namedview1"
     pagecolor="#ffffff"
     bordercolor="#000000"
     borderopacity="0.25"
     inkscape:showpageshadow="2"
     inkscape:pageopacity="0.0"
     inkscape:pagecheckerboard="0"
     inkscape:deskcolor="#d1d1d1"
     inkscape:zoom="20.583333"
     inkscape:cx="11.975709"
     inkscape:cy="12"
     inkscape:window-width="1440"
     inkscape:window-height="697"
     inkscape:window-x="0"
     inkscape:window-y="32"
     inkscape:window-maximized="1"
     inkscape:current-layer="svg1" />
  <path
     d="m 0.02675675,5.3915329 c 0.1146564,0.00637 0.2102034,0.00637 0.2739014,0.00637 0.49684441,0 0.82170425,-0.1465054 1.10197545,-0.4841048 C 1.6064672,4.6526361 1.6829048,4.4933911 1.83578,3.9710675 1.9058478,3.7162755 2.1415304,2.8563525 2.249817,2.4104665 2.47276,4.7035945 2.4791298,4.7609227 2.4918694,5.2705067 L 2.8039896,5.0284543 C 3.014193,4.5634589 3.4537092,3.8818903 4.5047262,2.3913571 c -0.019109,0.095547 -0.038219,0.1847242 -0.063698,0.2802712 -0.019109,0.095547 -0.070068,0.286641 -0.1465054,0.5669122 -0.3694484,1.3758768 -0.445886,1.6688876 -0.4586256,1.7007366 -0.050958,0.1465054 -0.082807,0.2802712 -0.082807,0.3694484 0,0.095547 0.070068,0.1656148 0.1528752,0.1656148 0.031849,0 0.076438,-0.00637 0.1210262,-0.01274 0.127396,-0.025479 0.5032142,-0.089177 0.5987612,-0.1019168 L 4.925133,5.3214651 c 0.019109,-0.00637 0.070068,-0.01274 0.1528752,-0.025479 L 5.211774,5.1367409 c -0.1082866,0.00637 -0.191094,0.01274 -0.2420524,0.019109 -0.1082866,0.00637 -0.2102034,0.01274 -0.2611618,0.01274 -0.2038336,0 -0.31849,-0.095547 -0.31849,-0.254792 0,-0.1783544 0,-0.1783544 0.3312296,-1.5223822 C 4.8869142,2.7034773 5.0461592,2.1493047 5.211774,1.65883 5.2627324,1.5059548 5.3136908,1.4613662 5.4283472,1.4613662 c 0.057328,0 0.1401356,0.00637 0.222943,0.025479 0.025479,0.00637 0.095547,0.019109 0.1719846,0.031849 L 6.0844366,1.1619856 C 5.9697802,1.1301366 5.912452,1.1237668 5.8296446,1.1237668 c -0.1401356,0 -0.2420524,0.025479 -0.414037,0.1146564 C 5.1353364,1.3785588 4.925133,1.531434 4.8041068,1.6779394 4.7276692,1.7798562 4.7276692,1.7798562 3.7849388,3.0920351 3.5428864,3.4360043 3.3072038,3.7863433 3.0651514,4.1366823 L 2.9059064,4.3659951 C 2.823099,3.3977855 2.6574842,1.9900596 2.5746768,1.5441736 L 2.377213,1.7034186 C 2.1351606,1.6715696 2.0141344,1.6651998 1.8612592,1.6651998 c -0.4267766,0 -0.6815686,0.1082866 -0.98094924,0.4204069 -0.34396921,0.350339 -0.54780281,0.7516364 -0.54780281,1.0764962 0,0.1847242 0.0382188,0.3439692 0.1465054,0.5860216 L 0.96311736,3.4105251 C 0.81024216,3.0856653 0.75928376,2.9264203 0.75928376,2.7353263 c 0,-0.414037 0.31212024,-0.6433498 0.86629284,-0.6433498 0.1528752,0 0.2484222,0.00637 0.4586256,0.038219 -0.2802712,1.1401942 -0.6242404,2.3313468 -0.732527,2.5351804 -0.127396,0.222943 -0.286641,0.31849 -0.56054244,0.31849 -0.10828661,0 -0.14650541,0 -0.47136521,-0.031849 z"
     id="text1"
     style="font-size:6.3698px;font-family:Z003;stroke-width:0.13291"
     transform="scale(1.0391 .9624)"
     aria-label="M" />
</svg>
