<?xml version="1.0" encoding="UTF-8" standalone="no"?>
<!-- Created with Inkscape (http://www.inkscape.org/) -->

<svg
   width="24"
   height="24"
   version="1.1"
   viewBox="0 0 6.35 6.35"
   id="svg1"
   sodipodi:docname="n.svg"
   inkscape:version="1.4.2 (ebf0e94, 2025-05-08)"
   xmlns:inkscape="http://www.inkscape.org/namespaces/inkscape"
   xmlns:sodipodi="http://sodipodi.sourceforge.net/DTD/sodipodi-0.dtd"
   xmlns="http://www.w3.org/2000/svg"
   xmlns:svg="http://www.w3.org/2000/svg">
  <defs
     id="defs1" />
  <sodipodi:namedview
     id="namedview1"
     pagecolor="#ffffff"
     bordercolor="#000000"
     borderopacity="0.25"
     inkscape:showpageshadow="2"
     inkscape:pageopacity="0.0"
     inkscape:pagecheckerboard="0"
     inkscape:deskcolor="#d1d1d1"
     inkscape:zoom="20.583333"
     inkscape:cx="11.975709"
     inkscape:cy="12"
     inkscape:window-width="1440"
     inkscape:window-height="697"
     inkscape:window-x="0"
     inkscape:window-y="32"
     inkscape:window-maximized="1"
     inkscape:current-layer="svg1" />
  <path
     d="m 0.05183337,5.0635495 c 0.17851079,0.013732 0.26776619,0.020597 0.37761899,0.020597 0.2952294,0 0.48060599,-0.041195 0.65911684,-0.1510476 0.3364241,-0.205974 0.6797141,-0.68658 0.8994197,-1.270173 0.1098528,-0.2883636 0.1510476,-0.4394112 0.446277,-1.6340603 0.171645,0.7415064 0.171645,0.7483722 0.2471688,1.0641989 0.1922424,0.789567 0.3844848,1.3800258 0.6041904,1.819437 0.4188138,0.8513592 1.0230042,1.270173 1.8331686,1.270173 0.3501558,0 0.5973246,-0.061792 0.9062856,-0.240303 L 5.8603001,5.3313157 C 5.6543261,5.8119217 5.4620837,5.9972983 5.1599885,5.9972983 4.7274431,5.9972983 4.3292267,5.6608741 3.9790709,4.9948915 4.0957895,4.4044327 4.1507159,4.1366665 4.3292267,3.4157575 4.6244561,2.2211084 4.7755037,1.7267708 4.9952093,1.273628 5.1393911,0.97839858 5.3041703,0.87541158 5.6199971,0.87541158 c 0.054926,0 0.096121,0 0.1853766,0.0137316 l 0.2540346,-0.4600086 c -0.08239,-0.006866 -0.1579134,-0.0137316 -0.2128398,-0.0137316 -0.2883636,0 -0.5973246,0.1991082 -0.9543462,0.61792202 C 4.5626639,1.4178098 4.4390795,1.7610998 4.1026553,3.2509783 4.0339973,3.5736709 3.9584735,3.8963635 3.8829497,4.2259219 3.8760839,4.2602509 3.8417549,4.4044327 3.7799627,4.6172725 3.4847333,4.0474111 3.3199541,3.5462077 2.7569585,1.4178098 L 2.6333741,0.97153278 2.3999369,1.1843726 C 2.2351577,1.170641 2.1527681,1.1637752 2.0223179,1.1637752 c -0.4188138,0 -0.6591168,0.075524 -0.9131513,0.2677662 -0.43254544,0.34329 -0.73464064,0.8376276 -0.73464064,1.2152466 0,0.1785107 0.0480606,0.3501557 0.171645,0.6041903 L 1.0199112,2.9282857 C 0.84826615,2.5575326 0.80020556,2.4133508 0.80020556,2.23484 c 0,-0.205974 0.11671859,-0.3913506 0.30896104,-0.4943376 0.1647791,-0.089255 0.3226925,-0.1167186 0.6453851,-0.1167186 0.171645,0 0.2814978,0 0.5218008,0.013732 C 1.9605257,3.0175411 1.6927595,3.8826319 1.4661881,4.2877141 1.3220063,4.5417487 1.1709587,4.6172725 0.80707135,4.6172725 c -0.14418179,0 -0.23343719,-0.00687 -0.42567959,-0.027463 z"
     id="text1"
     style="font-size:6.8658px;font-family:Z003;stroke-width:0.14326"
     transform="scale(1.0391 .9624)"
     aria-label="N" />
</svg>
