<?xml version="1.0" encoding="UTF-8" standalone="no"?>
<!-- Created with Inkscape (http://www.inkscape.org/) -->

<svg
   width="24"
   height="24"
   version="1.1"
   viewBox="0 0 6.35 6.35"
   id="svg1"
   sodipodi:docname="q.svg"
   inkscape:version="1.4.2 (ebf0e94, 2025-05-08)"
   xmlns:inkscape="http://www.inkscape.org/namespaces/inkscape"
   xmlns:sodipodi="http://sodipodi.sourceforge.net/DTD/sodipodi-0.dtd"
   xmlns="http://www.w3.org/2000/svg"
   xmlns:svg="http://www.w3.org/2000/svg">
  <defs
     id="defs1" />
  <sodipodi:namedview
     id="namedview1"
     pagecolor="#ffffff"
     bordercolor="#000000"
     borderopacity="0.25"
     inkscape:showpageshadow="2"
     inkscape:pageopacity="0.0"
     inkscape:pagecheckerboard="0"
     inkscape:deskcolor="#d1d1d1"
     inkscape:zoom="20.583333"
     inkscape:cx="11.975709"
     inkscape:cy="12"
     inkscape:window-width="1440"
     inkscape:window-height="697"
     inkscape:window-x="0"
     inkscape:window-y="32"
     inkscape:window-maximized="1"
     inkscape:current-layer="svg1" />
  <path
     d="m 5.6464307,5.1273762 c -0.07984,0.574848 -0.375248,0.902192 -0.806384,0.902192 -0.51896,0 -1.2055841,-0.383232 -2.2754401,-1.27744 0.670656,-0.335328 0.966064,-0.550896 1.253488,-0.9341281 0.4311361,-0.566864 0.6467041,-1.261472 0.6467041,-2.051888 0,-0.574848 -0.103792,-0.91816004 -0.351296,-1.20558404 C 3.8899506,0.31302405 3.5785746,0.17729605 3.2113106,0.17729605 c -0.726544,0 -1.588816,0.327344 -2.139712,0.81436802 C 0.44884656,1.5425601 0.07359855,2.4447521 0.07359855,3.4028321 c 0,1.0538881 0.47904001,1.5968001 1.40518405,1.5968001 0.151696,0 0.255488,-0.00798 0.463072,-0.047904 0.311376,0.295408 0.574848,0.526944 0.91816,0.7984 0.63872,0.502992 1.005984,0.670656 1.4610721,0.670656 0.574848,0 1.149696,-0.303392 1.71656,-0.902192 z M 2.2053266,4.4567202 c -0.223552,0.167664 -0.311376,0.207584 -0.471056,0.207584 -0.5988,0 -1.00598403,-0.6147681 -1.00598403,-1.5089761 0,-1.47704 0.86227203,-2.65867205 1.94809603,-2.65867205 0.710576,0 1.133728,0.55888005 1.133728,1.49300805 0,0.566864 -0.15968,1.245504 -0.3992,1.692608 -0.255488,0.47904 -0.510976,0.7025921 -1.029936,0.9261441 z"
     id="text1"
     style="font-size:7.984px;font-family:Z003;stroke-width:0.16659"
     transform="scale(1.0391 .9624)"
     aria-label="Q" />
</svg>
