<?xml version="1.0" standalone="no"?>
<!DOCTYPE svg PUBLIC "-//W3C//DTD SVG 20010904//EN"
 "http://www.w3.org/TR/2001/REC-SVG-20010904/DTD/svg10.dtd">
<svg version="1.0" xmlns="http://www.w3.org/2000/svg"
 width="1024.000000pt" height="1024.000000pt" viewBox="0 0 1024.000000 1024.000000"
 preserveAspectRatio="xMidYMid meet">

<g transform="translate(0.000000,1024.000000) scale(0.100000,-0.100000)"
fill="#000000" stroke="none">
<path d="M5261 7928 c-33 -29 -120 -105 -194 -169 l-134 -117 -28 -96 c-16
-53 -25 -99 -22 -103 4 -3 52 1 107 11 l100 16 143 123 c216 186 247 218 247
257 0 26 -10 43 -49 81 -66 67 -91 66 -170 -3z m143 -14 c45 -47 53 -70 30
-95 -17 -19 -18 -19 -42 3 -45 43 -84 98 -78 113 10 27 53 17 90 -21z m-70
-76 c40 -44 53 -65 46 -72 -8 -8 -28 8 -69 54 -54 59 -64 80 -41 80 4 0 34
-28 64 -62z m-86 10 c7 -10 -22 -40 -113 -115 -116 -97 -145 -116 -145 -94 0
10 230 220 241 220 4 1 11 -5 17 -11z m47 -48 c15 -16 16 -22 5 -35 -21 -25
-227 -195 -237 -195 -13 0 -35 42 -26 51 27 27 229 199 234 199 3 0 14 -9 24
-20z m45 -60 c0 -5 -33 -37 -72 -71 -40 -34 -95 -82 -121 -107 -38 -35 -51
-42 -57 -31 -6 9 4 24 33 49 23 19 75 65 117 102 71 63 100 80 100 58z m-345
-136 c26 -17 80 -102 71 -111 -3 -3 -24 -9 -47 -13 -35 -7 -47 -4 -71 13 -15
11 -28 26 -28 31 1 16 38 96 45 96 3 0 17 -7 30 -16z"/>
<path d="M4210 7809 c-69 -14 -143 -55 -192 -107 -43 -46 -45 -47 -99 -44 -67
4 -150 -25 -212 -72 -37 -29 -42 -37 -39 -68 2 -25 -2 -37 -13 -42 -8 -3 -15
-12 -15 -19 0 -12 132 -306 173 -387 7 -14 20 -26 29 -28 9 -2 75 26 145 62
95 48 138 64 166 63 30 -1 44 6 75 35 26 25 76 51 170 88 74 29 136 59 139 67
3 8 -35 103 -84 211 -86 191 -90 197 -120 200 -20 2 -37 12 -47 28 -9 13 -20
24 -24 23 -4 -1 -27 -5 -52 -10z m111 -154 c106 -229 101 -215 81 -222 -61
-21 -144 -69 -188 -107 l-52 -46 -22 53 c-12 28 -49 109 -83 180 l-61 128 40
40 c21 22 53 48 69 56 45 24 128 53 143 50 8 -1 41 -60 73 -132z m100 -94 c44
-96 79 -180 79 -187 0 -10 -194 -94 -218 -94 -4 0 -31 -18 -60 -40 -34 -26
-63 -40 -82 -40 -17 0 -87 -29 -161 -66 -72 -36 -132 -64 -134 -62 -2 2 -14
30 -28 63 -14 33 -52 117 -86 187 -33 70 -56 130 -52 132 7 5 65 -109 140
-276 20 -45 36 -68 47 -68 9 0 65 22 123 49 58 26 120 51 137 55 18 4 54 21
80 38 27 17 96 50 154 73 67 27 106 48 108 58 3 14 -61 167 -129 311 -22 46
-23 49 -8 44 6 -2 47 -82 90 -177z m-440 60 c7 -7 149 -333 149 -342 0 -4 -29
-9 -64 -11 -45 -4 -85 -16 -137 -41 -41 -20 -77 -33 -81 -29 -8 9 -158 332
-158 342 0 14 126 74 180 86 52 11 98 9 111 -5z m450 -226 c1 -10 -182 -88
-189 -81 -6 7 56 46 110 71 54 25 79 28 79 10z m-352 -159 c-2 -2 -50 -24
-106 -49 -63 -28 -103 -41 -103 -33 0 10 102 64 150 80 18 5 65 8 59 2z"/>
<path d="M4172 7690 c-59 -27 -102 -58 -102 -75 0 -9 18 -3 55 19 30 18 68 39
85 46 30 13 41 30 18 30 -7 0 -32 -9 -56 -20z"/>
<path d="M4183 7610 c-59 -30 -91 -55 -81 -65 6 -7 168 78 168 88 0 14 -27 7
-87 -23z"/>
<path d="M4224 7545 c-72 -37 -98 -59 -91 -79 6 -15 11 -13 39 13 18 17 57 41
86 53 28 12 52 25 52 30 0 15 -36 8 -86 -17z"/>
<path d="M4255 7471 c-53 -31 -102 -77 -92 -87 3 -3 30 12 59 35 30 22 71 47
91 56 20 8 37 17 37 20 0 14 -51 1 -95 -24z"/>
<path d="M3847 7546 c-32 -13 -64 -29 -72 -36 -26 -21 -5 -31 28 -13 18 9 57
24 87 33 57 18 78 40 38 40 -12 0 -49 -11 -81 -24z"/>
<path d="M3885 7481 c-69 -25 -97 -40 -93 -52 4 -13 8 -13 65 13 26 12 67 23
91 26 25 3 41 9 39 16 -6 18 -49 17 -102 -3z"/>
<path d="M3904 7407 c-67 -29 -90 -44 -82 -52 4 -4 36 5 72 19 35 14 78 26 95
26 21 0 31 5 31 15 0 22 -55 18 -116 -8z"/>
<path d="M3975 7351 c-49 -12 -115 -50 -115 -66 0 -19 9 -19 31 1 25 23 87 43
133 44 33 0 37 2 26 15 -13 16 -28 17 -75 6z"/>
<path d="M6113 7662 c-90 -32 -151 -93 -181 -181 -17 -47 -15 -155 3 -197 41
-99 133 -164 244 -172 l66 -4 54 -130 c61 -147 81 -169 131 -148 66 27 65 69
-5 217 l-54 115 34 33 c78 73 104 216 59 315 -61 130 -219 199 -351 152z m192
-42 c117 -50 176 -173 140 -295 -78 -269 -470 -230 -492 49 -16 189 175 322
352 246z m42 -497 c2 -6 -10 -16 -28 -23 -26 -11 -32 -11 -40 1 -6 10 -1 17
19 26 30 13 44 12 49 -4z m65 -124 c40 -90 43 -116 16 -133 -29 -18 -48 3 -90
99 -21 49 -38 90 -38 91 0 7 56 33 65 30 6 -1 27 -40 47 -87z"/>
<path d="M6113 7579 c-100 -49 -147 -183 -98 -279 33 -64 116 -114 190 -114
149 0 248 153 186 289 -19 43 -78 100 -118 116 -42 16 -115 10 -160 -12z m164
-28 c116 -53 134 -229 31 -303 -45 -32 -163 -33 -204 -2 -86 64 -100 182 -31
261 56 64 126 79 204 44z"/>
<path d="M5596 7629 c-32 -25 -36 -77 -8 -102 29 -26 77 -22 101 9 27 35 26
59 -4 89 -30 30 -54 31 -89 4z m72 -21 c19 -19 14 -56 -9 -68 -16 -9 -26 -8
-45 5 -39 26 -26 75 21 75 12 0 26 -5 33 -12z"/>
<path d="M6908 7310 c-32 -24 -40 -65 -23 -107 26 -61 97 -72 146 -24 41 41
37 102 -10 138 -25 19 -85 15 -113 -7z m114 -33 c27 -42 -7 -97 -58 -97 -66 0
-85 87 -25 116 26 13 69 3 83 -19z"/>
<path d="M3186 7139 c-15 -17 -26 -43 -26 -59 0 -16 11 -42 26 -59 21 -26 33
-31 68 -31 57 0 91 34 91 92 0 83 -105 121 -159 57z m124 -32 c18 -32 2 -72
-35 -89 -22 -10 -30 -8 -53 9 -46 34 -39 93 13 113 28 10 57 -2 75 -33z"/>
<path d="M4565 7040 c-25 -27 -22 -80 6 -102 69 -57 152 39 89 102 -26 26 -72
26 -95 0z m85 -20 c11 -11 20 -24 20 -30 0 -12 -37 -50 -48 -50 -18 0 -52 33
-52 50 0 17 34 50 52 50 5 0 17 -9 28 -20z"/>
<path d="M5550 7000 c-21 -21 -26 -69 -10 -99 16 -31 65 -46 100 -31 84 35 58
150 -33 150 -24 0 -44 -7 -57 -20z m88 -16 c26 -18 28 -50 5 -76 -19 -21 -42
-23 -67 -5 -24 17 -24 67 0 84 23 17 35 16 62 -3z"/>
<path d="M6827 6826 c-68 -15 -86 -29 -94 -79 -4 -30 0 -45 21 -76 36 -51 56
-121 56 -191 0 -53 -4 -62 -51 -126 -28 -38 -62 -93 -74 -121 l-24 -53 -35 15
c-69 29 -174 38 -246 22 -36 -9 -66 -14 -68 -12 -9 9 80 88 138 123 78 47 87
73 42 123 -28 32 -30 32 -63 19 -19 -8 -63 -43 -98 -78 -63 -64 -64 -64 -59
-32 12 84 -36 212 -109 291 -52 57 -156 129 -184 129 -42 0 -114 -149 -126
-261 l-6 -60 -31 8 c-17 4 -60 8 -96 8 -53 0 -75 -6 -112 -28 -41 -24 -47 -25
-59 -11 -7 8 -31 26 -54 40 l-42 24 19 40 c11 22 22 57 25 78 5 34 2 39 -21
50 -65 29 -206 6 -274 -45 -18 -14 -35 -23 -37 -21 -3 2 1 19 8 37 11 31 10
34 -16 57 -50 43 -78 25 -104 -67 l-16 -59 -51 48 c-99 93 -183 126 -322 127
-145 0 -160 -29 -93 -174 16 -35 29 -65 29 -67 0 -2 -19 -13 -42 -25 -23 -12
-73 -52 -110 -89 l-69 -67 -83 42 c-87 45 -194 70 -267 63 -21 -2 -38 -1 -37
2 2 3 18 35 37 72 27 55 34 82 38 150 3 50 1 94 -6 112 -11 28 -13 29 -62 23
-133 -16 -253 -113 -310 -250 l-15 -39 -38 50 c-48 62 -77 77 -114 60 -18 -9
-30 -25 -36 -50 -9 -36 -8 -39 38 -79 40 -35 106 -129 106 -151 0 -4 -39 -4
-87 -1 -202 12 -357 -61 -462 -218 -58 -86 -82 -172 -83 -289 0 -131 24 -216
110 -382 2 -5 -37 -8 -87 -8 -200 0 -222 -49 -151 -338 69 -283 174 -493 361
-727 39 -48 69 -88 67 -89 -2 -2 -66 -15 -143 -31 -314 -62 -847 -204 -942
-251 -119 -57 -209 -181 -234 -319 -20 -112 -18 -119 232 -735 146 -359 148
-362 211 -427 75 -76 194 -123 312 -123 22 0 130 22 238 50 511 129 978 209
1498 257 241 22 997 25 1260 5 498 -39 994 -120 1510 -247 274 -67 305 -71
393 -51 121 28 231 102 281 189 33 57 362 860 377 920 6 27 10 84 7 132 -4 71
-10 95 -41 159 -43 85 -108 151 -191 190 -71 33 -587 172 -861 231 -121 26
-232 50 -247 54 l-27 6 66 85 c193 249 304 480 367 762 14 64 26 139 26 168 0
46 -4 56 -34 86 l-34 34 -121 0 c-67 0 -121 2 -121 4 0 3 25 55 55 118 72 150
105 265 112 398 9 186 -37 327 -144 437 -68 70 -92 122 -100 211 -4 52 -2 76
11 100 24 46 21 94 -9 126 -20 21 -32 26 -72 25 -26 0 -74 -6 -106 -13z
m-2809 -154 c-8 -133 -78 -248 -176 -290 -64 -27 -102 -35 -102 -22 0 22 52
111 95 165 25 30 42 55 37 55 -12 0 -96 -90 -126 -135 l-26 -40 0 40 c2 119
97 237 230 284 30 11 59 20 64 20 5 1 7 -34 4 -77z m2093 -42 c51 -50 72 -79
89 -125 30 -80 32 -191 3 -255 l-19 -45 -7 65 c-7 79 -39 184 -68 225 -12 17
-18 21 -14 10 37 -96 48 -141 52 -211 3 -45 3 -93 0 -106 l-6 -24 -66 32 c-82
39 -118 73 -144 135 -44 100 -34 234 24 349 l26 51 32 -18 c17 -10 61 -47 98
-83z m-1338 55 c32 -8 76 -24 99 -36 46 -24 123 -99 152 -149 l19 -34 -39 32
c-40 32 -202 112 -225 112 -8 0 26 -22 74 -47 48 -26 111 -68 140 -94 l52 -47
-30 -13 c-16 -7 -64 -13 -105 -13 -119 -1 -214 54 -275 159 -30 51 -57 124
-49 136 8 14 124 10 187 -6z m2186 -32 c-10 -51 2 -139 27 -198 8 -19 37 -60
64 -90 67 -74 96 -119 120 -190 42 -121 34 -304 -21 -468 -24 -72 -116 -262
-134 -277 -8 -7 -167 -9 -471 -8 l-459 3 95 59 c281 176 406 338 545 705 16
42 50 102 79 140 l51 66 -1 80 c-1 44 -8 105 -17 137 -10 31 -17 61 -17 66 0
10 36 17 111 20 l36 2 -8 -47z m-1513 -50 c-17 -70 -112 -163 -187 -183 -40
-11 -125 -5 -134 10 -7 12 86 87 136 110 24 11 37 20 29 20 -20 0 -94 -35
-132 -61 l-30 -22 27 42 c48 72 124 109 229 110 l68 1 -6 -27z m-768 -174 c99
-87 237 -109 350 -55 59 28 61 29 101 12 81 -32 179 -13 253 49 l30 25 50 -27
c28 -15 52 -33 55 -39 2 -6 -7 -32 -21 -59 -14 -26 -28 -62 -32 -81 -6 -31 -9
-34 -43 -34 -121 0 -238 -101 -266 -228 -5 -26 -10 -32 -23 -26 -87 38 -130
46 -222 42 -79 -3 -104 -9 -153 -33 -53 -26 -129 -96 -169 -155 -17 -25 -17
-24 -17 52 -1 130 -36 241 -112 360 l-31 48 22 35 c25 40 87 93 145 123 22 12
42 21 44 22 2 0 19 -14 39 -31z m1114 -7 c24 -2 16 -17 -10 -17 -11 0 -16 -7
-14 -18 4 -25 -14 -44 -49 -52 -16 -4 -34 -16 -40 -27 -6 -12 -17 -17 -26 -14
-9 4 -22 -1 -30 -11 -13 -17 -14 -17 -12 2 3 44 -2 76 -10 70 -5 -3 -12 -1
-15 4 -8 12 39 42 88 56 37 11 54 12 118 7z m-1852 -83 c0 -5 -4 -8 -9 -5 -5
3 -11 0 -14 -8 -4 -9 -14 -12 -28 -9 l-21 6 23 13 c29 16 49 18 49 3z m188
-24 c-3 -3 -9 2 -12 12 -6 14 -5 15 5 6 7 -7 10 -15 7 -18z m1431 -8 c-9 -7
-14 -19 -11 -27 4 -12 2 -13 -9 -2 -12 11 -11 16 5 28 24 17 38 18 15 1z
m-1399 -37 c0 -5 -4 -10 -10 -10 -5 0 -10 5 -10 10 0 6 5 10 10 10 6 0 10 -4
10 -10z m-592 -11 c-10 -5 -18 -17 -18 -24 0 -18 26 -20 34 -2 3 8 8 7 16 -5
6 -10 20 -18 30 -18 22 0 27 -16 8 -23 -8 -3 -7 -6 4 -6 9 -1 20 -5 23 -11 4
-6 -10 -10 -35 -10 -23 0 -39 3 -37 8 3 4 -13 8 -34 9 -21 0 -39 -3 -39 -8 0
-9 62 -41 103 -53 21 -7 22 -22 2 -30 -8 -3 -15 -1 -15 4 0 6 5 10 12 10 6 0
9 3 6 6 -4 3 -16 1 -27 -6 -16 -8 -21 -8 -21 1 0 6 -9 9 -20 6 -12 -3 -18 -1
-14 5 4 6 1 9 -7 6 -18 -6 -57 33 -51 51 4 10 1 12 -9 6 -8 -4 -4 2 9 14 26
26 26 28 7 47 -15 15 -16 15 -19 -6 0 -5 -5 -10 -11 -9 -5 0 -9 6 -7 13 1 7
-5 13 -13 13 -8 0 -15 -4 -15 -8 0 -4 -8 -6 -17 -5 -11 0 -17 -6 -17 -16 1
-10 -2 -16 -6 -13 -5 3 -11 -1 -13 -7 -3 -7 -6 -1 -6 15 -1 28 -18 36 -38 16
-7 -7 -13 -7 -17 -1 -12 20 77 40 174 41 69 0 90 -2 78 -10z m1994 2 c24 13
31 8 22 -15 -5 -14 -9 -15 -16 -4 -7 10 -11 10 -14 1 -7 -16 -34 -4 -34 15 0
12 3 13 12 4 8 -8 17 -8 30 -1z m-1918 -14 c-3 -8 -11 -14 -19 -14 -8 0 -15 6
-15 14 0 7 9 13 20 13 12 0 17 -5 14 -13z m146 3 c0 -5 11 -10 25 -10 27 0 28
-1 19 -24 -3 -9 -10 -13 -15 -10 -5 3 -6 11 -3 17 4 7 -2 3 -13 -8 -11 -11
-18 -24 -16 -28 3 -5 -3 -7 -12 -5 -17 3 -30 51 -19 70 7 11 34 10 34 -2z
m2136 -12 c4 -7 3 -8 -4 -4 -7 4 -12 2 -12 -5 0 -7 -3 -10 -6 -6 -6 5 3 27 11
27 2 0 7 -5 11 -12z m-392 -16 c3 -5 -1 -9 -9 -9 -8 0 -12 4 -9 9 3 4 7 8 9 8
2 0 6 -4 9 -8z m346 -12 c0 -5 -2 -10 -4 -10 -3 0 -8 5 -11 10 -3 6 -1 10 4
10 6 0 11 -4 11 -10z m-2623 -7 c-8 -8 42 -63 57 -63 18 0 46 -33 46 -55 0
-12 -11 -32 -25 -45 -19 -18 -22 -26 -14 -37 6 -7 7 -13 2 -13 -5 0 -17 -22
-27 -50 -11 -30 -24 -50 -33 -50 -13 0 -13 -3 -3 -15 8 -10 9 -19 3 -27 -5 -7
-9 -25 -8 -40 0 -16 -2 -28 -7 -28 -4 0 -4 -22 -1 -49 5 -48 5 -50 -28 -70
-18 -11 -37 -29 -41 -38 -6 -14 -7 -12 -6 7 2 14 -5 36 -15 50 -19 28 -23 20
-5 -9 9 -15 9 -26 0 -45 -8 -19 -8 -26 1 -30 7 -2 5 -5 -4 -5 -9 -1 -20 6 -23
15 -3 8 -10 13 -15 9 -19 -11 -41 43 -52 128 -14 103 -6 157 21 157 10 0 21
-6 24 -12 4 -7 4 -3 2 9 -2 13 2 24 10 27 12 5 12 9 2 26 -7 11 -18 20 -25 20
-38 0 21 112 97 184 32 31 62 56 66 56 4 0 4 -3 1 -7z m197 -12 c3 -5 -3 -11
-15 -14 -16 -4 -18 -3 -8 9 13 16 16 17 23 5z m3141 -38 c39 -15 49 -23 47
-39 -6 -36 -102 -220 -127 -244 l-24 -23 -42 27 c-56 37 -112 56 -169 56 l-47
0 -6 48 c-3 26 -8 54 -12 63 -5 13 3 20 32 30 45 15 199 16 263 1 60 -15 62
-8 3 13 -60 21 -206 31 -256 17 -22 -6 -35 -7 -31 -1 8 14 99 58 141 69 54 13
170 5 228 -17z m-600 8 c-3 -6 4 -15 15 -21 18 -10 24 -7 22 11 -3 17 39 -6
54 -30 17 -25 17 -25 0 -12 -9 8 -33 15 -52 17 -28 2 -34 -2 -34 -18 0 -14
-12 -24 -40 -35 -30 -12 -37 -19 -28 -26 9 -6 7 -7 -6 -3 -11 4 -26 0 -37 -10
-14 -12 -22 -13 -38 -4 -22 11 -28 44 -11 55 6 4 8 11 4 16 -3 5 -2 8 3 7 4
-2 19 5 33 15 13 9 19 17 13 17 -7 0 -15 -4 -18 -10 -3 -5 -12 -10 -18 -10
-25 1 30 24 62 27 19 1 39 7 45 13 13 13 39 13 31 1z m-490 -15 c23 -10 35
-21 34 -33 -1 -17 -2 -17 -6 0 -2 9 -9 15 -14 12 -5 -4 -9 -1 -9 5 0 6 -5 8
-10 5 -6 -4 -7 -11 -4 -17 5 -7 -2 -9 -20 -4 -20 5 -26 3 -26 -9 0 -9 -19 -24
-45 -35 -25 -11 -45 -25 -45 -31 0 -7 -3 -9 -7 -6 -3 4 -12 2 -19 -4 -24 -20
-50 -2 -51 36 -1 38 12 48 112 81 53 17 69 17 110 0z m-1805 -68 c0 -5 -7 -3
-15 6 -8 8 -15 18 -15 22 0 3 7 1 15 -6 8 -7 15 -17 15 -22z m2425 -30 c-5
-23 -25 -49 -25 -32 0 6 5 15 12 22 9 9 9 12 -1 12 -7 0 -9 5 -6 10 11 18 24
10 20 -12z m-887 -43 c-3 -3 -9 2 -12 12 -6 14 -5 15 5 6 7 -7 10 -15 7 -18z
m-1828 5 c0 -5 -2 -10 -4 -10 -3 0 -8 5 -11 10 -3 6 -1 10 4 10 6 0 11 -4 11
-10z m1980 -30 c0 -5 -10 -10 -22 -9 -22 0 -22 1 -3 9 11 5 21 9 23 9 1 1 2
-3 2 -9z m-371 -25 c35 -9 82 -25 103 -37 34 -19 39 -26 36 -52 -3 -26 -11
-35 -59 -57 -59 -29 -145 -114 -155 -155 -3 -13 -10 -24 -15 -24 -5 0 -7 -10
-5 -22 3 -13 7 -49 10 -80 l6 -58 -28 0 c-87 0 -225 65 -297 140 -28 30 -29
31 -18 85 16 75 38 118 86 166 50 50 104 79 177 95 73 16 84 16 159 -1z
m-1709 -55 c0 -5 -5 -10 -11 -10 -5 0 -7 5 -4 10 3 6 8 10 11 10 2 0 4 -4 4
-10z m1930 -10 c0 -5 -5 -12 -12 -16 -7 -4 -8 -3 -4 4 4 7 2 12 -3 12 -6 0
-11 4 -11 10 0 5 7 7 15 4 8 -4 15 -10 15 -14z m617 -28 c0 -11 -4 -10 -14 4
-7 10 -13 22 -13 26 0 5 6 3 13 -4 8 -7 14 -19 14 -26z m-53 12 c3 -8 2 -12
-4 -9 -6 3 -10 10 -10 16 0 14 7 11 14 -7z m83 -4 c-1 -11 -5 -20 -9 -20 -3 0
-6 9 -5 20 1 11 5 20 9 20 3 0 6 -9 5 -20z m457 4 c18 -7 22 -34 5 -34 -5 0
-7 5 -3 12 5 7 3 8 -5 3 -7 -4 -11 -18 -8 -31 2 -13 0 -24 -5 -24 -5 0 -7 -9
-3 -19 4 -14 1 -19 -12 -17 -10 0 -22 7 -26 14 -17 26 -146 -14 -130 -42 5 -8
3 -8 -8 1 -8 6 -23 26 -33 45 -11 18 -15 30 -11 26 4 -4 14 -3 22 4 11 9 12 7
6 -8 -6 -16 -4 -17 9 -6 13 10 17 10 21 -2 4 -9 -1 -17 -11 -20 -12 -3 -11 -4
3 -3 15 2 19 9 17 26 -3 16 6 33 25 52 23 23 37 28 80 28 28 1 58 -2 67 -5z
m-504 -34 c0 -5 -7 -7 -15 -4 -8 4 -15 8 -15 10 0 2 7 4 15 4 8 0 15 -4 15
-10z m-2530 -21 c0 -10 -27 -19 -34 -12 -11 12 -6 19 14 19 11 0 20 -3 20 -7z
m1995 -19 c3 -5 1 -10 -4 -10 -6 0 -11 5 -11 10 0 6 2 10 4 10 3 0 8 -4 11
-10z m629 -19 c-2 -2 4 -9 13 -16 23 -17 10 -43 -32 -61 -19 -8 -35 -19 -35
-24 0 -6 -7 -10 -15 -10 -9 0 -15 -10 -16 -22 -1 -17 -2 -19 -6 -5 -2 9 -13
17 -23 17 -10 0 -22 10 -26 22 -6 20 -7 20 -19 5 -10 -14 -14 -15 -18 -4 -6
15 42 67 80 86 12 6 29 8 37 5 9 -3 16 -2 16 2 0 5 11 9 24 9 13 0 23 -2 20
-4z m274 -46 c0 -28 -13 -33 -22 -10 -3 8 -1 15 4 15 5 0 6 7 3 17 -4 10 -2
14 4 10 6 -4 11 -18 11 -32z m-1050 3 c20 -20 14 -39 -28 -79 -29 -28 -40 -47
-40 -69 0 -16 -4 -30 -10 -30 -5 0 -7 8 -4 18 5 14 4 14 -6 -2 -10 -15 -14
-16 -21 -5 -6 10 -9 11 -9 2 0 -7 -5 -13 -11 -13 -6 0 -8 10 -5 23 3 12 3 16
0 10 -8 -18 -33 -16 -30 2 1 8 5 18 9 21 4 4 7 16 7 26 0 10 5 18 10 18 6 0 9
6 8 13 -2 6 2 11 9 10 6 -1 17 5 25 14 11 14 11 16 -2 8 -8 -4 -12 -5 -8 -1 3
4 8 7 10 5 2 -1 19 8 38 20 41 25 42 25 58 9z m-1876 -16 c-7 -2 -9 -9 -6 -14
4 -7 2 -8 -4 -4 -6 4 -9 13 -6 21 4 8 11 12 17 8 8 -5 7 -8 -1 -11z m2289 -38
c18 -22 2 -44 -51 -70 -30 -14 -39 -23 -30 -27 8 -3 -1 -3 -20 0 -37 6 -50 18
-50 44 0 21 21 38 67 55 50 17 68 17 84 -2z m-251 -14 c0 -5 -2 -10 -4 -10 -3
0 -8 5 -11 10 -3 6 -1 10 4 10 6 0 11 -4 11 -10z m459 -5 c6 3 9 0 6 -7 -3 -8
-16 -15 -29 -16 -19 -1 -23 2 -19 18 4 16 9 18 19 9 7 -6 18 -8 23 -4z m-479
-45 c0 -5 -2 -10 -4 -10 -3 0 -8 5 -11 10 -3 6 -1 10 4 10 6 0 11 -4 11 -10z
m-736 -92 c15 -46 30 -89 32 -95 4 -10 -8 -13 -45 -13 -70 0 -75 13 -43 111
15 44 27 79 28 79 1 0 14 -37 28 -82z m-1439 52 c3 -5 -1 -10 -9 -10 -9 0 -16
5 -16 10 0 6 4 10 9 10 6 0 13 -4 16 -10z m2542 -32 c-3 -8 -6 -5 -6 6 -1 11
2 17 5 13 3 -3 4 -12 1 -19z m-2499 -44 c12 -8 19 -20 16 -26 -4 -6 0 -14 7
-19 11 -7 11 -9 1 -9 -8 0 -10 -5 -6 -12 4 -7 5 -11 1 -8 -3 3 -6 8 -6 13 -1
4 -10 16 -21 27 -12 12 -18 25 -15 30 3 4 -1 11 -7 13 -7 3 -8 6 -3 6 6 1 21
-6 33 -15z m4156 -156 c15 -19 17 -33 12 -79 -18 -154 -92 -386 -175 -545 -96
-184 -273 -424 -313 -424 -11 0 -97 13 -191 30 -604 104 -1471 144 -2155 99
-318 -20 -697 -66 -1007 -120 -60 -10 -115 -19 -121 -19 -17 0 -149 163 -221
272 -117 178 -192 364 -247 609 -32 143 -32 163 -3 186 22 17 107 18 2213 15
l2189 -2 19 -22z m-1759 -1008 c669 -32 1265 -119 1892 -274 267 -67 537 -143
577 -163 54 -28 113 -92 141 -154 43 -96 39 -174 -15 -309 -145 -365 -317
-771 -342 -807 -36 -53 -83 -89 -147 -114 -100 -37 -137 -35 -351 20 -987 253
-1950 334 -2950 245 -450 -39 -943 -125 -1408 -245 -105 -27 -212 -49 -236
-49 -93 0 -213 55 -266 123 -20 25 -129 283 -298 707 -80 198 -86 220 -86 285
0 90 24 161 76 219 60 69 105 90 319 152 673 193 1423 322 2124 363 205 12
728 12 970 1z"/>
<path d="M6913 6163 c-17 -115 -58 -245 -114 -363 -56 -119 -31 -98 30 25 51
101 89 233 97 335 4 44 5 80 2 80 -2 0 -9 -35 -15 -77z"/>
<path d="M3120 5899 c0 -5 4 -8 9 -5 5 4 12 0 14 -6 3 -8 6 -6 6 5 1 9 -6 17
-14 17 -8 0 -15 -5 -15 -11z"/>
<path d="M3163 5843 c4 -7 0 -16 -10 -22 -17 -10 -17 -10 0 -11 9 0 17 -5 17
-11 0 -5 -5 -7 -12 -3 -6 4 -8 3 -4 -4 3 -6 2 -13 -4 -17 -5 -3 -10 -11 -10
-18 0 -6 7 -1 16 12 14 19 22 22 50 17 29 -6 33 -4 31 13 -1 15 -7 20 -23 17
-17 -3 -21 0 -17 15 3 11 0 19 -6 19 -7 0 -9 -5 -5 -12 5 -8 0 -7 -11 2 -10 8
-16 10 -12 3z"/>
<path d="M3095 5820 c-3 -5 -1 -10 4 -10 6 0 11 5 11 10 0 6 -2 10 -4 10 -3 0
-8 -4 -11 -10z"/>
<path d="M5123 5865 c-17 -19 -16 -21 7 -21 13 0 20 7 20 18 0 21 -10 23 -27
3z"/>
<path d="M4922 4080 c-18 -4 -45 -18 -59 -31 -54 -50 -54 -57 -47 -472 7 -418
11 -445 69 -483 41 -27 114 -29 153 -5 61 39 72 71 72 209 l0 122 63 0 c72 0
116 22 147 72 38 62 17 157 -42 190 -13 7 -57 15 -98 18 l-75 5 0 50 0 50 117
5 c106 5 119 7 142 29 77 72 46 213 -52 241 -43 11 -341 12 -390 0z m393 -42
c50 -23 69 -92 40 -147 -19 -38 -33 -42 -160 -48 -60 -2 -116 -6 -122 -8 -9
-3 -13 -28 -13 -79 0 -88 11 -100 82 -90 103 14 166 -34 155 -119 -9 -65 -33
-81 -135 -87 l-87 -5 -5 -140 c-3 -77 -9 -148 -14 -158 -11 -23 -58 -47 -91
-47 -37 0 -79 24 -93 54 -18 40 -29 775 -12 816 26 62 54 70 252 70 116 0 186
-4 203 -12z"/>
<path d="M4535 4066 c-17 -7 -43 -28 -58 -45 -26 -32 -27 -36 -27 -156 0 -124
25 -604 36 -683 11 -88 97 -145 181 -123 49 13 102 69 104 109 3 64 -4 247
-20 525 -16 265 -20 301 -38 325 -40 55 -116 75 -178 48z m109 -37 c53 -24 55
-44 87 -630 13 -238 8 -263 -59 -295 -32 -15 -41 -15 -77 -3 -74 26 -68 -18
-111 740 -5 86 -3 111 10 137 28 54 94 76 150 51z"/>
<path d="M5523 4069 c-34 -10 -80 -58 -88 -92 -3 -12 -18 -193 -34 -401 -29
-381 -29 -413 3 -461 22 -33 96 -59 143 -50 50 9 109 69 117 118 3 20 9 54 12
75 l6 37 23 -61 c35 -94 61 -139 97 -169 56 -47 147 -26 202 48 29 39 24 76
-27 212 l-44 120 52 52 c73 71 98 139 93 249 -5 103 -38 174 -110 239 -58 52
-113 71 -233 80 -44 3 -102 7 -130 10 -27 2 -64 -1 -82 -6z m172 -39 c156 -15
207 -32 261 -86 82 -81 111 -195 78 -300 -14 -48 -30 -71 -82 -123 -64 -63
-65 -65 -53 -95 54 -134 91 -238 91 -256 0 -12 -15 -37 -34 -56 -28 -28 -42
-34 -76 -34 -59 0 -87 34 -140 171 -24 63 -49 129 -57 147 -16 42 -37 37 -40
-9 -2 -19 -6 -76 -9 -127 -5 -79 -10 -97 -31 -122 -48 -57 -144 -47 -178 20
-14 28 -14 52 5 293 11 144 22 298 25 342 11 160 15 177 50 212 37 37 37 37
190 23z"/>
<path d="M5678 3824 c-5 -4 -8 -50 -8 -102 l0 -95 51 5 c57 6 100 33 109 69
10 35 -7 87 -33 104 -27 17 -108 31 -119 19z m102 -54 c38 -38 13 -100 -41
-100 -29 0 -29 0 -29 60 0 57 1 60 25 60 14 0 34 -9 45 -20z"/>
<path d="M4035 4024 c-240 -28 -248 -31 -282 -115 -12 -30 -23 -47 -23 -38 0
28 -54 77 -96 88 -81 21 -164 -24 -185 -102 -9 -32 -2 -80 41 -310 28 -149 49
-282 45 -294 -7 -30 -48 -56 -75 -48 -11 4 -27 16 -34 28 -8 12 -37 137 -66
277 -28 140 -55 269 -61 286 -16 51 -61 86 -117 92 -96 9 -162 -48 -162 -141
0 -66 105 -576 131 -637 26 -59 110 -142 176 -173 39 -18 66 -22 143 -22 88 0
101 3 162 33 117 57 188 167 196 302 3 59 -6 127 -42 326 -49 266 -54 303 -31
239 24 -66 84 -99 164 -88 l39 5 6 -48 c3 -27 20 -166 37 -309 32 -271 40
-300 89 -337 87 -65 230 5 230 112 0 19 -16 163 -34 320 -36 301 -36 300 12
300 41 0 91 28 112 62 40 67 13 170 -54 202 -42 20 -60 19 -321 -10z m326 -43
c24 -24 29 -38 29 -76 0 -65 -28 -90 -108 -100 -34 -4 -64 -11 -67 -15 -3 -5
11 -142 30 -305 19 -162 35 -309 35 -325 0 -95 -107 -142 -178 -77 -31 29 -36
56 -72 367 -17 151 -33 285 -36 298 -4 22 -7 23 -72 17 -59 -6 -70 -4 -94 14
-51 41 -54 129 -6 169 9 7 69 19 134 27 355 44 366 44 405 6z m-691 -88 c23
-25 32 -61 75 -298 27 -149 48 -295 48 -325 -2 -116 -71 -229 -174 -285 -44
-23 -69 -30 -135 -33 -71 -4 -89 -1 -136 20 -67 31 -121 78 -153 132 -29 51
-151 622 -140 663 3 14 19 38 35 54 47 48 139 36 170 -21 5 -10 33 -135 61
-277 63 -322 56 -298 86 -328 49 -49 137 -27 163 40 10 27 9 39 -50 354 -25
135 -39 237 -36 256 6 31 36 66 66 78 34 14 95 -2 120 -30z"/>
<path d="M6233 4004 c-56 -28 -71 -67 -104 -266 -57 -352 -61 -383 -57 -448 7
-120 79 -228 190 -287 48 -25 62 -28 158 -28 126 0 172 17 254 95 71 67 99
132 126 295 12 72 35 203 50 292 32 180 30 206 -17 255 -65 68 -181 55 -227
-26 -13 -22 -29 -72 -36 -111 -6 -38 -27 -160 -46 -269 -19 -110 -41 -210 -49
-223 -20 -30 -74 -32 -100 -3 -19 20 -18 28 29 309 30 182 46 300 41 319 -20
91 -125 139 -212 96z m126 -38 c29 -16 51 -53 51 -90 0 -13 -20 -145 -45 -294
-31 -186 -42 -278 -36 -294 23 -61 105 -86 154 -48 16 13 32 33 37 46 5 13 30
143 55 291 26 152 52 278 61 291 25 38 80 56 126 43 48 -15 73 -52 71 -105 -4
-79 -94 -566 -113 -611 -29 -67 -104 -138 -176 -165 -118 -45 -243 -23 -336
59 -42 36 -93 131 -103 189 -7 41 75 581 97 635 24 60 95 85 157 53z"/>
<path d="M6946 3869 c-38 -30 -56 -71 -56 -128 0 -63 33 -106 93 -122 23 -6
47 -13 54 -15 8 -2 -12 -94 -63 -295 -41 -160 -74 -308 -74 -329 0 -113 151
-179 239 -104 37 31 46 58 122 379 34 143 65 263 69 268 3 4 30 3 58 -4 45 -9
57 -8 89 8 40 19 83 87 83 130 0 38 -26 90 -56 109 -36 24 -426 123 -485 124
-32 0 -54 -6 -73 -21z m312 -70 c171 -42 217 -57 237 -77 45 -45 24 -137 -37
-163 -22 -9 -42 -9 -87 1 -33 7 -63 10 -69 6 -5 -3 -12 -20 -16 -38 -3 -18
-36 -157 -73 -308 -63 -258 -69 -277 -100 -309 -30 -30 -38 -33 -74 -28 -23 3
-52 15 -64 27 -49 46 -48 53 36 385 44 171 78 317 76 325 -1 8 -20 18 -42 22
-65 13 -95 29 -110 59 -19 36 -19 53 2 96 17 36 64 65 93 58 8 -2 111 -27 228
-56z"/>
<path d="M2675 3763 c-88 -24 -183 -51 -212 -59 -128 -35 -171 -152 -89 -239
40 -42 76 -51 145 -37 30 7 56 11 57 9 1 -1 39 -135 83 -297 45 -162 89 -306
99 -320 78 -107 262 -47 262 86 0 21 -36 165 -80 320 -44 155 -80 284 -80 287
0 3 22 13 50 22 53 18 99 62 102 98 5 76 -17 128 -65 157 -46 29 -91 24 -272
-27z"/>
<path d="M7660 3713 c-23 -9 -60 -45 -76 -75 -12 -24 -78 -220 -204 -613 -45
-138 -47 -182 -15 -231 54 -83 193 -85 242 -3 26 43 253 757 253 796 0 38 -33
89 -72 113 -32 19 -94 25 -128 13z m150 -104 c0 -21 -20 -27 -21 -6 0 6 -2 20
-4 30 -3 15 -1 16 11 6 8 -6 14 -20 14 -30z"/>
<path d="M2851 6734 c-12 -15 -21 -37 -21 -50 0 -27 43 -64 76 -64 33 0 64 34
64 70 0 65 -79 94 -119 44z m83 -26 c23 -38 -36 -77 -64 -43 -10 12 -10 21 -1
41 13 29 47 30 65 2z"/>
<path d="M2299 6481 c-16 -17 -29 -40 -29 -54 0 -14 -7 -27 -15 -31 -25 -9
-55 -69 -55 -108 0 -29 8 -47 36 -78 20 -21 33 -44 29 -49 -10 -17 14 -50 55
-76 22 -14 40 -32 40 -39 0 -20 47 -74 79 -90 14 -7 56 -16 93 -18 76 -6 101
5 124 56 8 17 26 47 40 66 21 29 24 42 20 75 -4 22 -7 60 -9 85 -2 52 -27 96
-63 112 -20 9 -24 18 -24 55 0 60 -40 103 -97 103 -22 0 -44 -5 -50 -11 -9 -9
-19 -6 -39 10 -41 32 -98 28 -135 -8z m127 -26 c29 -29 37 -31 54 -10 14 17
53 20 80 5 21 -11 42 -65 38 -100 -2 -18 4 -28 23 -37 40 -20 51 -38 55 -95 2
-29 6 -69 10 -89 5 -29 1 -41 -22 -68 -15 -18 -35 -47 -43 -65 -16 -31 -16
-31 -86 -28 -83 4 -111 20 -142 81 -13 25 -36 50 -55 61 -26 13 -34 25 -36 51
-3 24 -15 44 -39 67 -33 29 -35 35 -30 74 4 30 14 49 33 65 17 13 28 32 29 48
2 61 85 86 131 40z"/>
<path d="M2357 6404 c-3 -4 2 -18 13 -31 18 -23 18 -27 3 -49 -20 -31 -12 -72
25 -127 16 -23 35 -59 41 -80 27 -83 89 -101 147 -43 46 46 44 71 -11 142 -25
31 -45 63 -45 70 0 25 -61 74 -91 74 -19 0 -34 8 -45 25 -17 25 -26 30 -37 19z
m127 -105 c14 -17 26 -35 26 -41 0 -6 15 -29 33 -52 19 -23 36 -49 40 -58 10
-27 -29 -68 -64 -68 -25 0 -32 6 -45 38 -9 20 -28 57 -44 82 -41 66 -45 85
-21 109 29 29 45 26 75 -10z"/>
<path d="M2432 6288 c-8 -8 -8 -17 -1 -30 12 -22 29 -15 29 12 0 24 -13 33
-28 18z"/>
<path d="M2480 6181 c0 -5 9 -19 19 -32 23 -29 44 -16 30 19 -8 21 -49 32 -49
13z"/>
<path d="M2310 6299 c0 -5 5 -7 10 -4 6 3 10 8 10 11 0 2 -4 4 -10 4 -5 0 -10
-5 -10 -11z"/>
<path d="M2580 6260 c0 -5 5 -10 11 -10 5 0 7 5 4 10 -3 6 -8 10 -11 10 -2 0
-4 -4 -4 -10z"/>
<path d="M2340 6180 c0 -5 5 -10 10 -10 6 0 10 5 10 10 0 6 -4 10 -10 10 -5 0
-10 -4 -10 -10z"/>
<path d="M7532 6467 c-12 -13 -22 -35 -22 -50 0 -32 35 -67 67 -67 30 0 73 42
73 70 0 28 -43 70 -73 70 -13 0 -33 -10 -45 -23z m25 -42 c-15 -16 -22 -11
-13 10 3 9 10 13 16 10 6 -4 5 -11 -3 -20z"/>
<path d="M7588 5973 c-9 -10 -55 -97 -104 -194 -67 -135 -86 -181 -81 -201 6
-21 36 -40 184 -113 98 -48 192 -89 209 -92 36 -6 35 -7 168 250 65 125 75
151 65 168 -13 25 -364 199 -401 199 -14 0 -32 -8 -40 -17z m235 -100 c97 -48
177 -92 177 -97 0 -11 -166 -335 -185 -359 -13 -18 -24 -14 -199 71 -102 50
-186 95 -186 101 0 6 41 92 90 191 65 130 95 180 108 180 9 0 97 -39 195 -87z"/>
<path d="M7634 5743 c-108 -98 -119 -121 -73 -155 25 -19 28 -19 59 -3 44 23
84 8 74 -29 -7 -29 25 -66 56 -66 33 0 48 39 64 170 15 118 15 125 -1 142 -10
10 -32 20 -49 24 -28 5 -40 -2 -130 -83z m150 44 c16 -12 17 -21 6 -116 -13
-122 -23 -154 -48 -149 -12 2 -18 15 -20 44 -3 38 -6 43 -42 57 -37 14 -41 14
-65 -5 -20 -16 -29 -17 -40 -8 -7 6 -11 18 -8 25 7 21 171 165 186 165 7 0 21
-6 31 -13z"/>
<path d="M7707 5711 c-34 -36 -34 -49 -2 -57 32 -8 31 -9 40 44 8 50 0 52 -38
13z"/>
<path d="M2419 5411 c-20 -20 -29 -39 -29 -61 0 -43 47 -90 90 -90 43 0 90 47
90 90 0 43 -47 90 -90 90 -22 0 -41 -9 -61 -29z m103 -18 c22 -20 23 -61 1
-85 -34 -38 -103 -11 -103 40 0 54 62 81 102 45z"/>
<path d="M7883 5011 c-49 -35 -112 -108 -119 -138 -4 -12 -4 -43 -3 -67 4 -44
3 -45 -33 -57 -47 -15 -104 -71 -119 -116 -25 -78 13 -163 90 -197 34 -16 39
-22 31 -37 -15 -26 -12 -55 6 -73 22 -23 86 -20 117 4 17 13 40 20 70 20 100
0 169 119 123 209 -15 28 -80 91 -94 91 -4 0 -7 24 -8 52 -1 29 -4 65 -9 80
-6 23 0 33 55 86 66 64 68 74 33 130 -30 48 -84 53 -140 13z m105 -17 c40 -28
29 -66 -33 -119 -60 -52 -69 -80 -40 -135 9 -17 14 -30 11 -30 -12 0 -122 55
-128 64 -4 6 -8 29 -8 52 0 46 31 97 94 152 40 35 70 40 104 16z m-143 -283
c22 -10 46 -25 53 -33 11 -13 6 -17 -31 -26 -66 -17 -82 -41 -83 -126 -1 -67
-2 -71 -25 -74 -57 -6 -129 66 -129 128 0 43 42 112 80 132 44 23 84 23 135
-1z m126 -107 c15 -7 34 -30 44 -50 39 -82 -11 -174 -95 -174 -21 0 -55 -9
-74 -21 -78 -46 -130 3 -61 58 35 28 35 29 29 85 -5 45 -3 63 10 83 30 46 82
52 147 19z"/>
<path d="M2460 4873 c-14 -9 -35 -25 -48 -36 -21 -19 -21 -22 -6 -45 14 -21
14 -31 5 -63 -42 -140 134 -239 243 -136 63 60 66 150 5 213 -20 21 -45 35
-70 39 -25 4 -40 13 -44 26 -8 24 -51 25 -85 2z m60 -28 c0 -16 -68 -58 -81
-50 -17 11 -9 25 29 49 38 24 52 25 52 1z m111 -53 c61 -55 48 -161 -25 -196
-42 -20 -78 -20 -116 -1 -37 19 -50 43 -50 93 0 47 26 84 78 112 51 26 76 25
113 -8z"/>
<path d="M5022 2607 c-153 -87 -148 -80 -156 -234 -5 -92 -4 -138 4 -153 6
-12 48 -45 93 -74 106 -68 141 -86 169 -86 13 0 73 33 133 73 l110 72 7 50 c3
28 7 91 7 142 l1 92 -35 28 c-49 39 -216 143 -229 143 -7 0 -53 -24 -104 -53z
m223 -46 c50 -31 90 -64 90 -71 0 -8 -44 -42 -99 -76 l-98 -62 -92 56 c-50 30
-101 63 -113 72 -21 16 -21 18 -5 33 35 32 178 107 202 106 14 0 66 -26 115
-58z m-286 -128 c25 -14 72 -44 104 -65 l57 -39 -1 -72 c0 -40 -4 -93 -7 -119
l-7 -47 -70 44 c-155 97 -145 86 -145 164 0 74 10 161 18 161 3 0 26 -12 51
-27z m401 -45 c0 -35 -3 -87 -6 -115 l-7 -53 -84 -56 c-47 -30 -91 -58 -99
-61 -12 -4 -14 15 -14 108 l0 114 97 63 c54 34 101 62 105 62 5 0 8 -28 8 -62z"/>
<path d="M5093 2580 c-15 -6 -23 -18 -23 -34 0 -29 24 -41 40 -20 19 22 44 18
36 -6 -3 -11 -9 -29 -12 -40 -4 -14 -2 -20 9 -20 21 0 46 26 53 57 6 21 1 31
-20 50 -29 24 -47 27 -83 13z"/>
<path d="M5133 2434 c-7 -18 17 -38 31 -24 11 11 1 40 -14 40 -6 0 -13 -7 -17
-16z"/>
<path d="M4932 2391 c-8 -4 -12 -19 -10 -32 2 -18 9 -24 28 -24 28 0 39 27 20
50 -14 17 -20 18 -38 6z"/>
<path d="M5030 2205 c-15 -18 -7 -43 16 -52 24 -9 46 24 33 48 -12 23 -32 24
-49 4z"/>
<path d="M5290 2386 c-6 -8 -10 -25 -8 -38 2 -17 10 -23 28 -23 18 0 26 6 28
23 3 22 -13 52 -28 52 -4 0 -13 -7 -20 -14z"/>
<path d="M5184 2205 c-9 -23 3 -45 25 -45 10 0 21 7 25 15 8 23 -4 45 -25 45
-11 0 -22 -7 -25 -15z"/>
</g>
</svg>
