<?xml version="1.0" encoding="UTF-8" standalone="no"?>
<!-- Created with Inkscape (http://www.inkscape.org/) -->

<svg
   width="24"
   height="24"
   version="1.1"
   viewBox="0 0 6.35 6.35"
   id="svg1"
   sodipodi:docname="ñ.svg"
   inkscape:version="1.4.2 (ebf0e94, 2025-05-08)"
   xmlns:inkscape="http://www.inkscape.org/namespaces/inkscape"
   xmlns:sodipodi="http://sodipodi.sourceforge.net/DTD/sodipodi-0.dtd"
   xmlns="http://www.w3.org/2000/svg"
   xmlns:svg="http://www.w3.org/2000/svg">
  <defs
     id="defs1" />
  <sodipodi:namedview
     id="namedview1"
     pagecolor="#ffffff"
     bordercolor="#000000"
     borderopacity="0.25"
     inkscape:showpageshadow="2"
     inkscape:pageopacity="0.0"
     inkscape:pagecheckerboard="0"
     inkscape:deskcolor="#d1d1d1"
     inkscape:zoom="20.583333"
     inkscape:cx="11.975709"
     inkscape:cy="12"
     inkscape:window-width="1440"
     inkscape:window-height="697"
     inkscape:window-x="0"
     inkscape:window-y="32"
     inkscape:window-maximized="1"
     inkscape:current-layer="svg1" />
  <path
     d="m 0.05183337,5.3656421 c 0.17851079,0.013732 0.26776619,0.020597 0.37761899,0.020597 0.2952294,0 0.48060599,-0.041195 0.65911684,-0.1510476 0.3364241,-0.205974 0.6797141,-0.68658 0.8994197,-1.270173 0.1098528,-0.2883636 0.1510476,-0.4394112 0.446277,-1.6340604 0.171645,0.7415064 0.171645,0.7483722 0.2471688,1.064199 0.1922424,0.789567 0.3844848,1.3800258 0.6041904,1.819437 0.4188138,0.8513592 1.0230042,1.270173 1.8331686,1.270173 0.3501558,0 0.5973246,-0.061792 0.9062856,-0.240303 L 5.8603001,5.6334083 c -0.205974,0.480606 -0.3982164,0.6659826 -0.7003116,0.6659826 -0.4325454,0 -0.8307618,-0.3364242 -1.1809176,-1.0024068 0.1167186,-0.5904588 0.171645,-0.858225 0.3501558,-1.579134 0.2952294,-1.1946492 0.446277,-1.6889868 0.6659826,-2.1421296 0.1441818,-0.2952294 0.308961,-0.3982164 0.6247878,-0.3982164 0.054926,0 0.096121,0 0.1853766,0.013732 L 6.0594083,0.73122714 c -0.08239,-0.006866 -0.1579134,-0.0137316 -0.2128398,-0.0137316 -0.2883636,0 -0.5973246,0.19910819 -0.9543462,0.61792196 C 4.5626639,1.7199023 4.4390795,2.0631923 4.1026553,3.5530709 4.0339973,3.8757635 3.9584735,4.1984561 3.8829497,4.5280145 3.8760839,4.5623435 3.8417549,4.7065253 3.7799627,4.9193651 3.4847333,4.3495037 3.3199541,3.8483003 2.7569585,1.7199023 L 2.6333741,1.2736253 2.3999369,1.4864651 c -0.1647792,-0.013732 -0.2471688,-0.020597 -0.377619,-0.020597 -0.4188138,0 -0.6591168,0.075524 -0.9131513,0.2677662 -0.43254544,0.34329 -0.73464064,0.8376276 -0.73464064,1.2152466 0,0.1785108 0.0480606,0.3501558 0.171645,0.6041904 L 1.0199112,3.2303783 C 0.84826615,2.8596251 0.80020556,2.7154433 0.80020556,2.5369325 c 0,-0.205974 0.11671859,-0.3913506 0.30896104,-0.4943376 0.1647791,-0.089255 0.3226925,-0.1167186 0.6453851,-0.1167186 0.171645,0 0.2814978,0 0.5218008,0.013732 C 1.9605257,3.3196337 1.6927595,4.1847245 1.4661881,4.5898067 1.3220063,4.8438413 1.1709587,4.9193651 0.80707135,4.9193651 c -0.14418179,0 -0.23343719,-0.00687 -0.42567959,-0.027463 z M 2.9766641,0.86854313 C 3.2375645,0.53211894 3.3336857,0.45659514 3.5053307,0.45659514 c 0.096121,0 0.1922424,0.034329 0.3364242,0.1167186 0.3570216,0.1991082 0.4325454,0.22657139 0.5904588,0.22657139 0.205974,0 0.3570216,-0.11671859 0.720909,-0.56986139 l -0.075524,-0.1167186 c -0.171645,0.1579134 -0.1853766,0.171645 -0.240303,0.2128398 -0.102987,0.0755238 -0.2677662,0.1304502 -0.3707532,0.1304502 -0.089255,0 -0.240303,-0.0549264 -0.3913506,-0.137316 -0.2677662,-0.1510476 -0.3295584,-0.171645 -0.4668744,-0.171645 -0.2197056,0 -0.3913506,0.137316 -0.720909,0.5973246 z"
     id="text1"
     style="font-size:6.8658px;font-family:Z003;stroke-width:0.14326"
     transform="scale(1.0391 .9624)"
     aria-label="Ñ" />
</svg>
